<?xml version="1.0" standalone="no"?>
<!DOCTYPE svg PUBLIC "-//W3C//DTD SVG 20010904//EN"
 "http://www.w3.org/TR/2001/REC-SVG-20010904/DTD/svg10.dtd">
<svg version="1.0" xmlns="http://www.w3.org/2000/svg"
 width="700.000000pt" height="700.000000pt" viewBox="0 0 700.000000 700.000000"
 preserveAspectRatio="xMidYMid meet">
<metadata>
Created by potrace 1.11, written by Peter Selinger 2001-2013
</metadata>
<g transform="translate(0.000000,700.000000) scale(0.100000,-0.100000)"
fill="#000000" stroke="none">
<path d="M5140 6582 c-16 -6 -13 -422 3 -423 6 0 103 -1 213 -2 l201 -2 -1
215 -1 214 -203 1 c-111 0 -207 -1 -212 -3z"/>
<path d="M2140 6168 c-80 -138 -160 -276 -178 -307 -18 -31 -37 -65 -43 -76
-9 -19 -18 -20 -77 -17 -37 2 -68 5 -69 6 0 0 -4 19 -7 41 -35 224 -202 427
-412 500 -93 32 -125 37 -225 37 -249 -2 -463 -140 -570 -367 -36 -77 -41 -93
-55 -177 l-7 -38 -51 0 c-257 0 -463 -222 -442 -476 10 -117 45 -193 128 -277
68 -69 155 -113 248 -125 36 -5 278 -8 538 -8 259 1 472 -2 472 -5 0 -4 -32
-62 -72 -130 -39 -68 -84 -146 -98 -174 -15 -27 -58 -102 -95 -165 -37 -63
-76 -131 -87 -150 -11 -19 -25 -44 -31 -55 -15 -26 -99 -170 -125 -215 -11
-19 -71 -123 -133 -230 -62 -107 -117 -205 -123 -217 -6 -13 -14 -23 -18 -23
-5 0 -8 -4 -8 -9 0 -8 -109 -198 -447 -780 l-153 -264 0 -1023 c0 -812 3
-1024 13 -1025 57 -4 6669 -3 6672 1 1 3 -21 52 -49 110 -28 58 -81 168 -117
245 -37 77 -139 291 -228 476 -89 185 -161 338 -161 340 0 2 105 4 233 4 258
0 294 4 385 47 189 89 294 323 234 523 -55 182 -233 314 -424 315 -53 0 -58 2
-59 23 -4 112 -93 291 -190 383 -164 154 -394 215 -604 160 -56 -15 -77 -23
-120 -45 -27 -15 -62 -35 -77 -45 l-27 -17 -24 53 c-14 29 -52 109 -85 178
-158 330 -192 402 -192 405 0 1 -48 101 -106 221 -59 120 -121 251 -139 289
-33 69 -100 209 -230 480 -37 77 -84 176 -105 220 -123 261 -312 651 -319 658
-4 4 -24 -27 -44 -70 -19 -43 -77 -163 -127 -268 -51 -104 -114 -236 -141
-292 -27 -57 -71 -149 -98 -205 -27 -57 -81 -170 -121 -253 -40 -82 -83 -174
-97 -204 -13 -29 -25 -52 -27 -50 -3 3 -187 321 -246 424 -191 334 -1083 1880
-1089 1887 -3 4 -71 -106 -151 -244z"/>
<path d="M5985 5518 l0 -213 200 0 c110 -1 206 1 213 3 9 3 12 55 12 213 l0
209 -213 0 -213 0 1 -212z"/>
</g>
</svg>
