<?xml version="1.0" standalone="no"?>
<!DOCTYPE svg PUBLIC "-//W3C//DTD SVG 20010904//EN"
 "http://www.w3.org/TR/2001/REC-SVG-20010904/DTD/svg10.dtd">
<svg version="1.0" xmlns="http://www.w3.org/2000/svg"
 width="720.000000pt" height="720.000000pt" viewBox="0 0 720.000000 720.000000"
 preserveAspectRatio="xMidYMid meet">
<metadata>
Created by potrace 1.11, written by Peter Selinger 2001-2013
</metadata>
<g transform="translate(0.000000,720.000000) scale(0.100000,-0.100000)"
fill="#000000" stroke="none">
<path d="M3548 6595 c-1 -1 -73 -5 -158 -9 -85 -3 -175 -8 -200 -11 -25 -3
-67 -7 -95 -10 -27 -2 -50 -4 -50 -5 0 -1 -13 -3 -30 -4 -16 -2 -55 -7 -85
-11 -30 -5 -62 -9 -70 -10 -14 -1 -77 -12 -125 -21 -11 -2 -31 -6 -45 -9 -50
-10 -231 -51 -260 -60 -8 -2 -35 -9 -60 -15 -25 -6 -52 -13 -60 -17 -8 -3 -23
-8 -32 -9 -10 -2 -70 -22 -135 -45 -65 -22 -122 -42 -128 -43 -5 -2 -19 -7
-30 -11 -11 -4 -63 -25 -115 -46 -52 -20 -113 -45 -135 -55 -22 -10 -42 -18
-45 -19 -22 -6 -387 -195 -429 -223 -45 -29 -65 -42 -81 -49 -23 -11 -213
-140 -235 -160 -80 -72 -135 -199 -135 -313 0 -58 21 -156 42 -193 7 -12 13
-24 13 -27 0 -3 15 -26 33 -52 17 -26 32 -51 32 -57 0 -6 4 -11 8 -11 4 0 16
-14 26 -31 20 -33 73 -90 117 -124 23 -18 47 -59 159 -270 21 -38 47 -86 58
-105 11 -19 37 -66 57 -105 20 -38 44 -78 53 -87 8 -10 12 -18 9 -18 -4 0 11
-29 33 -65 22 -36 40 -68 40 -70 0 -3 28 -56 63 -118 35 -61 66 -119 70 -127
4 -8 20 -37 35 -65 16 -27 45 -79 64 -115 42 -78 127 -231 155 -280 11 -20 39
-71 63 -115 23 -44 59 -109 80 -145 20 -36 44 -78 52 -95 28 -54 169 -309 199
-357 16 -27 26 -48 23 -48 -3 0 3 -12 14 -28 10 -15 38 -63 62 -107 45 -83 72
-132 116 -212 15 -27 41 -75 59 -108 18 -33 47 -85 64 -115 17 -30 45 -82 62
-115 18 -33 40 -72 51 -87 11 -16 16 -28 11 -28 -4 0 -3 -4 2 -8 6 -4 19 -25
31 -47 12 -22 33 -62 49 -90 15 -27 43 -79 63 -115 19 -36 44 -81 55 -100 11
-19 36 -64 55 -100 19 -36 48 -87 63 -115 16 -27 43 -77 61 -110 18 -33 38
-69 44 -80 7 -11 22 -40 35 -65 12 -25 25 -47 28 -50 4 -3 19 -30 34 -60 16
-30 32 -62 37 -70 5 -8 41 -71 79 -140 39 -69 81 -136 96 -150 31 -29 87 -50
137 -50 41 0 118 27 118 41 0 5 6 9 13 9 6 0 26 21 44 48 42 64 283 491 283
503 0 5 4 9 8 9 4 0 13 12 19 27 7 16 25 51 41 78 16 28 39 68 52 90 12 22 36
65 53 95 18 30 38 67 47 82 8 14 28 50 44 80 16 29 37 65 47 79 10 14 16 29
12 33 -3 3 -1 6 5 6 7 0 12 4 12 9 0 5 21 44 46 87 25 43 50 87 55 98 5 12 23
44 39 71 17 28 34 57 37 65 4 8 9 17 12 20 3 3 17 25 30 50 28 54 39 75 227
405 141 250 180 319 220 395 11 19 21 37 24 40 6 6 25 39 53 93 11 23 24 44
27 47 3 3 14 21 23 40 10 19 27 51 38 70 11 19 55 96 96 170 41 74 83 146 92
160 9 14 23 39 31 55 8 17 17 32 20 35 3 3 17 28 31 55 53 100 64 120 69 125
3 3 10 14 16 25 6 11 22 40 36 65 13 25 40 72 58 105 18 33 36 65 40 70 6 9
23 38 95 170 12 22 68 120 124 217 55 97 101 181 101 187 0 6 5 11 10 11 6 0
10 5 10 11 0 6 23 49 51 97 28 47 55 95 60 107 10 23 31 58 40 65 3 3 31 39
61 80 59 80 106 162 113 201 9 46 18 104 17 114 -8 112 -23 165 -65 237 -29
51 -110 135 -138 143 -10 4 -19 11 -19 16 0 5 -6 9 -14 9 -8 0 -16 3 -18 8 -3
7 -148 101 -178 115 -8 4 -28 16 -45 27 -83 53 -372 200 -379 193 -3 -4 -6 -1
-6 5 0 7 -4 12 -10 12 -5 0 -38 13 -72 29 -35 15 -92 40 -128 54 -36 14 -78
31 -95 38 -16 7 -37 13 -45 15 -8 2 -23 7 -35 13 -42 21 -348 115 -415 127
-14 3 -32 7 -40 10 -13 5 -32 9 -85 18 -5 1 -15 5 -21 9 -7 4 -29 9 -50 12
-22 3 -61 9 -89 14 -136 26 -227 40 -280 45 -27 3 -72 7 -100 11 -106 12 -145
15 -320 20 -99 4 -185 8 -192 10 -6 2 -13 2 -15 0z"/>
</g>
</svg>
